<?xml version="1.0" encoding="UTF-8" standalone="no"?>
<!DOCTYPE svg PUBLIC "-//W3C//DTD SVG 1.1//EN" "http://www.w3.org/Graphics/SVG/1.1/DTD/svg11.dtd">
<svg width="100%" height="100%" viewBox="0 0 800 800" version="1.1" xmlns="http://www.w3.org/2000/svg" xmlns:xlink="http://www.w3.org/1999/xlink" xml:space="preserve" xmlns:serif="http://www.serif.com/" style="fill-rule:evenodd;clip-rule:evenodd;stroke-linejoin:round;stroke-miterlimit:2;">
    <g transform="matrix(2.30548,0,0,2.85714,0,-17.1429)">
        <rect x="0" y="6" width="347" height="280" style="fill:rgb(44,18,57);"/>
    </g>
    <g transform="matrix(1,0,0,1,136,136)">
        <path d="M264,0C409.706,0 528,118.294 528,264C528,409.706 409.706,528 264,528C118.294,528 -0,409.706 -0,264C-0,118.294 118.294,0 264,0ZM203.21,351.184C210.687,362.152 219.122,371.873 228.308,380.095C228.849,380.58 229.421,381.025 230.017,381.428C227.117,383.035 224.689,385.554 223.215,388.802C213.404,410.428 213.179,429.989 220.934,444.903C228.709,459.855 244.983,471.548 272.174,474.856C277.15,475.461 282.122,473.699 285.607,470.096C289.092,466.493 290.686,461.465 289.915,456.512L289.291,448.738C326.17,415.199 327.537,391.514 323.067,378.13C321.408,373.164 318.763,369.045 315.786,365.678C319.515,361.311 323.07,356.67 326.435,351.778C344.955,358.378 358.376,359.958 367.639,358.686C380.018,356.986 387.641,350.995 392.246,342.987C398.106,332.796 398.193,316.828 393.001,299.473C385.621,274.805 368.876,246.398 362.591,236.203C362.694,233.297 362.746,230.373 362.746,227.433C362.746,147.409 324.119,79.905 272.008,54.631C267.599,52.493 262.453,52.493 258.044,54.631C205.932,79.905 167.306,147.409 167.306,227.433C167.306,229.318 167.327,231.196 167.37,233.067C163.957,238.433 143.405,271.378 134.999,299.473C129.807,316.828 129.894,332.796 135.754,342.987C140.359,350.995 147.982,356.986 160.361,358.686C169.895,359.995 183.837,358.283 203.21,351.184ZM174.511,286.181C177.79,299.14 182.117,311.439 187.344,322.897C181.369,324.904 176.214,326.184 171.777,326.783C169.254,327.123 167.06,327.233 165.161,327.037C164.624,326.981 163.907,326.805 163.457,326.684C163.333,325.451 162.964,321.238 163.4,318.335C164.371,311.868 166.731,304.652 169.614,297.432C171.126,293.646 172.787,289.864 174.511,286.181ZM354.8,289.029C356.054,291.802 357.261,294.615 358.386,297.432C361.269,304.652 363.629,311.868 364.6,318.335C365.036,321.238 364.667,325.451 364.543,326.684C364.093,326.805 363.376,326.981 362.839,327.037C360.94,327.233 358.746,327.123 356.223,326.783C352.234,326.244 347.664,325.156 342.44,323.483C347.4,312.699 351.562,301.164 354.8,289.029ZM308.286,320.442C306.846,321.856 305.651,323.568 304.806,325.536C304.501,326.245 304.251,326.965 304.055,327.689C298.358,336.86 291.874,345.087 284.728,352.173C284.728,352.173 245.323,352.173 245.323,352.173C217.183,324.266 199.306,278.67 199.306,227.433C199.306,164.928 225.766,110.609 265.026,87.193C304.285,110.609 330.746,164.928 330.746,227.433C330.746,262.319 322.458,294.59 308.286,320.442ZM265.026,166.033C231.138,166.033 203.626,193.546 203.626,227.433C203.626,261.321 231.138,288.833 265.026,288.833C298.913,288.833 326.426,261.321 326.426,227.433C326.426,193.546 298.913,166.033 265.026,166.033ZM265.026,198.033C281.252,198.033 294.426,211.207 294.426,227.433C294.426,243.66 281.252,256.833 265.026,256.833C248.799,256.833 235.626,243.66 235.626,227.433C235.626,211.207 248.799,198.033 265.026,198.033ZM289.109,384.173C290.408,384.903 292.019,386.185 292.715,388.268C293.557,390.789 292.642,393.969 290.459,398.286C286.305,406.5 277.942,416.384 263.66,428.693C261.623,430.449 259.177,433.604 257.917,438.246C253.998,436.214 251.104,433.56 249.325,430.14C245.419,422.628 247.415,412.916 252.356,402.024C255.171,395.82 253.692,388.754 249.177,384.173L289.109,384.173Z" style="fill:rgb(229,124,216);"/>
    </g>
</svg>
